<svg width="103" height="61" viewBox="0 0 103 61" fill="none" xmlns="http://www.w3.org/2000/svg">
<path d="M28.8579 1.34944L24.1926 0L22.0694 6.99503C16.2308 7.38059 11.2861 9.66636 7.01193 13.8799C2.31869 18.3964 0 23.9318 0 30.4587C0 36.958 2.31869 42.521 6.984 47.1201C11.0627 51.0582 15.728 53.344 21.2593 53.8122C20.6726 54.4731 20.0022 55.1616 19.3038 55.9052L17.6555 57.7228L21.2593 60.9725L22.9075 59.1549C24.863 57.1445 26.3995 55.2167 27.4611 53.702C32.4058 53.0411 36.7917 50.8379 40.4792 47.2853H40.5631C40.5631 47.2027 40.6469 47.0925 40.7586 47.0925C41.4291 46.3214 42.0157 45.6605 42.7141 44.8894L44.2785 43.0718L40.5072 40.0149L38.9428 41.9427C38.4679 42.521 37.8812 43.0993 37.2945 43.6777C37.2945 43.7603 37.2107 43.8704 37.099 43.8704C35.0597 45.8808 32.741 47.3129 30.1988 48.1666C30.4782 47.1201 30.6737 46.1562 30.8693 45.1097C31.0648 43.0993 30.8693 41.0063 30.4782 38.6104C30.0871 36.6826 30.0871 34.4795 30.4782 32.1937C30.8693 29.7977 32.4337 27.1264 35.0317 23.9594L36.4844 22.1418L32.7969 19.0849L31.2324 20.9025C27.936 24.8406 25.9805 28.3657 25.5894 31.4226C25.1145 34.3968 25.1145 37.0682 25.6732 39.5743V39.4916C25.9525 41.4194 26.0643 43.1269 25.9525 44.6691C25.757 46.1011 25.3659 47.6433 24.5837 49.158C24.3043 49.158 23.997 49.158 23.8015 49.158C18.5495 49.158 14.0797 47.3404 10.3922 43.7052C6.59289 40.07 4.74912 35.6637 4.74912 30.4862C4.74912 25.3088 6.59289 20.9025 10.2804 17.2673H10.3643C13.2975 14.3756 16.6219 12.6406 20.3933 11.9797L11.6493 39.2713L16.3146 40.7034L25.5335 11.7869C30.0033 12.1725 33.9702 13.8799 37.2945 17.2397C37.8812 17.8181 38.4679 18.3964 38.9428 19.0573L40.5072 20.8749L44.2785 17.9007L42.7141 15.9729C42.0437 15.2018 41.457 14.5409 40.7586 13.8799C36.7638 9.94176 32.2102 7.7386 26.9582 7.18781L28.8579 1.34944Z" fill="white"/>
<path d="M56.3468 12.3928H52.9106V27.6497H56.3468V12.3928Z" fill="white"/>
<path d="M70.4542 25.8873L68.778 23.0232L68.3869 23.4913C67.6885 24.3726 66.7387 24.7857 65.4816 24.7857C64.3921 24.7857 63.554 24.4001 62.9115 23.574C62.241 22.7478 61.9058 21.5911 61.9058 20.1591C61.9058 18.727 62.269 17.5153 62.9953 16.5789C63.6937 15.6701 64.5597 15.2295 65.6492 15.2295C66.8225 15.2295 67.6606 15.4773 68.1634 15.9731L68.5825 16.3862L70.0631 13.4394L69.7558 13.2466C68.6942 12.5306 67.2416 12.1726 65.4816 12.1726C63.4143 12.1726 61.6823 12.9437 60.3414 14.4584C59.0284 15.9731 58.3579 17.8457 58.3579 20.0764C58.3579 22.4448 58.9725 24.3726 60.1458 25.7771C61.3471 27.1816 63.0791 27.9252 65.2302 27.9252C67.3812 27.9252 69.0574 27.3193 70.2028 26.1351L70.4542 25.8873Z" fill="white"/>
<path d="M81.098 21.536C80.8466 20.9577 80.4834 20.4344 80.0085 19.9938C79.5336 19.5531 78.8073 19.1125 77.8016 18.6168C76.1534 17.8182 75.2594 17.0471 75.2594 16.4136C75.2594 16.0281 75.3711 15.7252 75.6226 15.5048C75.874 15.257 76.2372 15.1468 76.7121 15.1468C77.634 15.1468 78.5279 15.4498 79.366 16.0281L79.813 16.3586L80.8745 13.3568L80.651 13.164C79.785 12.4755 78.4441 12.145 76.6562 12.145C75.2594 12.145 74.0861 12.5581 73.1921 13.3568C72.2702 14.1829 71.7953 15.2019 71.7953 16.4412C71.7953 17.1021 71.9071 17.708 72.1306 18.2312C72.3541 18.782 72.6893 19.2502 73.1363 19.6358C73.5553 20.0213 74.3375 20.4895 75.5108 21.0678C76.8238 21.7288 77.3825 22.1969 77.606 22.4448C77.9133 22.8303 78.053 23.1884 78.053 23.6015C78.053 23.9595 78.053 24.7581 76.1813 24.7581C75.2873 24.7581 74.3375 24.4276 73.3877 23.7667L72.9687 23.4638L71.6836 26.5482L71.9909 26.741C73.1642 27.4845 74.4772 27.8425 75.9019 27.8425C77.5781 27.8425 78.919 27.4294 79.9247 26.6033C80.9583 25.7771 81.4891 24.703 81.4891 23.4087C81.4612 22.7753 81.3494 22.1143 81.098 21.536Z" fill="white"/>
<path d="M62.1574 46.3214C61.459 47.2027 60.5092 47.6158 59.2521 47.6158C58.1626 47.6158 57.3245 47.2302 56.682 46.404C56.0115 45.5779 55.6763 44.4212 55.6763 42.9891C55.6763 41.5571 56.0395 40.3454 56.7658 39.409C57.4642 38.5002 58.3302 38.0596 59.4197 38.0596C60.593 38.0596 61.4311 38.3074 61.9339 38.8031L62.353 39.2162L63.8336 36.2695L63.5263 36.0767C62.4647 35.3607 61.0121 35.0027 59.2521 35.0027C57.1848 35.0027 55.4528 35.7738 54.1119 37.2885C52.7989 38.8031 52.1284 40.6758 52.1284 42.9065C52.1284 45.2749 52.743 47.2027 53.9163 48.6072C55.1176 50.0117 56.8496 50.7553 59.0007 50.7553C61.1517 50.7553 62.8279 50.1494 63.9733 48.9652L64.1968 48.7449L62.5206 45.8808L62.1574 46.3214Z" fill="white"/>
<path d="M74.1978 45.3577C74.1978 46.0737 73.9743 46.6245 73.5552 47.01C73.1083 47.4231 72.4657 47.6159 71.6556 47.6159C70.9293 47.6159 70.3705 47.4231 69.9794 47.01C69.5883 46.597 69.3928 46.0737 69.3928 45.4128V35.2231H65.9287V45.5505C65.9287 47.2028 66.4316 48.4972 67.4373 49.3784C68.4429 50.2597 69.8398 50.7279 71.6556 50.7279C73.4435 50.7279 74.8962 50.2597 75.9577 49.3784C77.0472 48.4696 77.606 47.1753 77.606 45.578V35.2507H74.1698V45.3577H74.1978Z" fill="white"/>
<path d="M88.5291 41.8326C89.4509 41.1441 89.8979 40.2628 89.8979 39.1888C89.8979 37.8669 89.423 36.8479 88.4452 36.1044C87.5234 35.4159 86.2383 35.0579 84.618 35.0579C83.8358 35.0579 82.4111 35.1129 80.4556 35.1956L80.0645 35.2231V50.4525H84.9533C86.6294 50.4525 88.0262 50.0394 89.1157 49.2132C90.2331 48.3594 90.7919 47.2028 90.7919 45.7707C90.7919 43.9256 90.0376 42.6037 88.5291 41.8326ZM84.3666 40.7861C84.0872 40.7861 83.8079 40.7861 83.5285 40.7585V38.0872C83.9476 38.0597 84.2828 38.0597 84.5901 38.0597C86.2662 38.0597 86.4897 38.7206 86.4897 39.2989C86.4618 39.9874 86.2383 40.7861 84.3666 40.7861ZM83.5006 43.54C83.8917 43.54 84.199 43.5125 84.3945 43.5125C85.7913 43.5125 86.4059 43.7603 86.6853 43.9807C87.0764 44.2836 87.244 44.7518 87.244 45.4403C87.244 46.2114 87.0484 46.7346 86.6294 47.0376C86.1824 47.368 85.4282 47.5333 84.3666 47.5333C84.1431 47.5333 83.8358 47.5333 83.5006 47.5057V43.54Z" fill="white"/>
<path d="M103 38.3351V35.2231H92.8032V50.48H102.888V47.3681H96.2393V43.8705H101.1V40.8687H96.2393V38.3351H103Z" fill="white"/>
</svg>
